<svg enable-background="new 0 0 256.09 171.52" height="258.828491" viewBox="0 0 256.09 171.52" width="386.356231" xmlns="http://www.w3.org/2000/svg"><path d="m255.65 105c-1.14-14.91-4.47-28.81-9.87-41.32-12.52-28.98-35.57-48.73-66.66-57.12-13.86-3.74-31.23-5.56-53.1-5.56-15.74 0-31.5.89-46.74 1.74-13.06.74-25.41 1.44-36.02 1.44-13.17 0-21.99-1.12-26.95-3.43-1.07-.5-2.2-.75-3.38-.75-3.6 0-6.74 2.4-7.64 5.84-.57 2.21-1.18 5.19-1.72 8.41-1.27 5.31-3.02 14.2-3.5 30.13-1.1 37.29 10.27 69.12 32.88 92.04 22.45 22.76 54.67 34.89 93.17 35.09h1.79c36.63 0 60.02-5.86 78.83-10.58 12.87-3.23 23.98-6.01 36.01-6.07l1.66-.02.06-.07c4.28-.47 7.83-3.59 8.64-7.74 2.75-13.99 3.6-28.14 2.54-42.03z" fill="#76bc21"/><path d="m14.73 3.94c-1.26-.59-2.73.11-3.07 1.44-1.58 6.09-3.58 19.22-3.83 27.68-2.13 72.18 42.78 126.32 123.96 126.71 63.55.3 81.27-12.13 112.43-12.29 2.01-.01 3.8-1.35 4.18-3.29 10.28-52.34-5.58-116.73-69.92-134.09-52.67-14.22-138.23 5.7-163.75-6.16z" fill="#fff"/><path d="m152.51 44.85c2.68-3.03 3.64-4.11 3.64-4.11.28-.32.82-.33 1.14-.06.35.29.39.75.09 1.05 0 0-1.63 1.97-4.87 5.62zm-10.83 57.16c.81 1.18 1.59 2.25 2.57 3.6.24.37.73.47 1.11.24.4-.24.52-.73.29-1.12-.7-1.04-1.28-1.74-1.95-2.71h-2.02zm10.83-38.42 10.6-5.72c.37-.21.49-.65.28-1.02-.2-.36-.67-.5-1.06-.28l-9.82 5.1zm-17.78 49.45c-.95-3.99-1.13-4.47-1.92-8.4-2.29-9.7-1.89-10.28-1.69-15.35 2.62 2.42 5.5 4.98 10.02 11.94.38-.25 1-.67 1.42-.96-1.48-2.15-2.69-4.07-4.16-6.18-1.4-2.38-2.27-5.32-3.06-7.64 2.63.97 4.1 1.55 7.38 3.45 1.18.73 3.86 2.57 4.65 3.01.41.24.91.14 1.2-.22.25-.36.15-.87-.22-1.13-2.08-1.52-3.04-2.14-4.69-3.41-2.35-1.82-3.97-3.87-5.46-5.75 3.56-.14 6.55.2 9.73.86 3.93.87 7.79 1.94 12.13 2.73.42.12.82-.14.94-.5.13-.38-.12-.83-.55-.96-4.12-1.04-8.22-2.01-12.1-3-3.17-.81-6.25-2.41-8.96-4.04 2.85-1.3 7.7-2.31 10.04-2.63 2.37-.34 25.37-3.32 25.37-3.32.43-.04.76-.44.72-.9-.06-.42-.45-.73-.89-.68 0 0-23.97 2.94-25.51 3.12-5.96.66-10.4-.48-10.4-.48 4.26-3.78 4.91-4.4 13-8.62-.23-.47-.49-1.04-.81-1.49-8.44 4.77-9.75 4.6-14.63 5.72 1.19-2.03 1.52-4.12 8.9-12.57-.35-.32-.79-.77-1.29-1.15-5.23 6.22-6.55 7.23-11.57 10.71.53-4.31.28-5.5 3.75-15.09-.58-.19-1.09-.32-1.68-.51-3.22 9.8-4.43 10.07-6.84 13.88-1.3-3.99-1.96-8.35-2.1-15.24-.55 0-1.12-.04-1.69.06.75 10.1-.88 13.1-1.3 15.38-2.87-4.09-3.67-4.56-7.58-13.49-.55.21-1.19.43-1.57.63 3.35 7.1 3.85 9.99 4.51 14.87-4.68-2.91-7.82-5.61-12.86-10.72l-14.83-14.84c-.32-.33-.85-.34-1.19-.03-.33.3-.35.81-.03 1.12l19.8 19.96c2.99 3.2 4.52 6.37 5.48 8.01-8.18-1.39-12.67-4.18-20.79-7.51-.41-.18-.89.02-1.08.44-.17.42.03.9.43 1.08 10.05 4.49 14.31 6.09 19.35 10.57-6.43 1.42-11.77.87-20.13.42-.46 0-.82.35-.82.81-.04.47.34.85.79.85 8.38.66 13.95.51 19.98 2.82-2.86 1.99-7.42 3.94-10.37 4.95l-17.91 5.71c-.42.15-.62.62-.46 1.06.15.44.63.67 1.04.51l13.28-4.28.47-.15c7.8-2.56 10.21-2.8 15.5-2.9-.9 1.03-3.83 5.34-11.21 10.73.31.37.74.84 1.1 1.27 7.94-6.67 9.98-6.6 13.28-8.34-1.45 5.18-2.24 7.23-6.37 14.16-1.84 3.39-2.89 4.76-5.06 8.95-.25.39-.09.87.3 1.11.4.23.88.1 1.11-.28 2.09-3.66 3.12-5.52 5.13-8.85 4.74-8.71 7.49-10.52 9.43-12.64.58 5.05-.04 10.43-.86 15.42-.18 1.31-.39 2.62-.56 4.03-.07.44.3.83.72.92.44.1.86-.21.93-.65.22-1.38.41-2.71.61-4.05 1.24-8.67 2.06-9.88 4.07-14.89 1.83 3.66 2.89 4.94 5.04 14.6.78 3.1 1.01 4.39 1.94 8.01h1.66zm-17.68-36.21c0-4.58 3.81-8.32 8.5-8.32 4.74 0 8.53 3.75 8.53 8.32 0 4.69-3.79 8.47-8.53 8.47-4.69 0-8.5-3.78-8.5-8.47" fill="#fff200"/><path d="m114.88 50.19c3.91 8.93 4.71 9.4 7.58 13.49.41-2.28 2.06-5.26 1.3-15.38-3.17.2-5.96.84-8.88 1.89m19.5-.59c-3.22 9.78-4.43 10.07-6.84 13.88-1.3-4-1.96-8.35-2.1-15.24 2.9-.05 5.68.36 8.94 1.36m1.67.51c-3.46 9.59-3.2 10.79-3.73 15.09 5.02-3.48 6.32-4.49 11.57-10.71-2.37-1.87-4.56-3.14-7.84-4.38m-38.07 36.32c1.1 2.72 2.35 5.44 4.3 7.84 7.37-5.39 10.3-9.7 11.22-10.73-5.31.1-7.72.35-15.52 2.89m18.67.78c-3.31 1.73-5.33 1.68-13.28 8.34 2.3 2.58 4.1 4.06 6.92 5.79 4.12-6.87 4.91-8.96 6.36-14.13m4.54 2.44c-1.95 2.12-4.69 3.93-9.38 12.59 2.54 1.28 5.23 2.23 8.52 2.82.81-4.98 1.44-10.34.86-15.41m4.87.75c-1.99 5.04-2.84 6.25-4.03 14.92 3.32.38 6.11.2 9.09-.3-2.12-9.64-3.21-10.93-5.06-14.62m-39.79-37.4c3.87 4.07 5.55 9.72 4.23 15.25-1.32 5.58-5.85 9.84-10.36 11.41-3.64 1.24-8.63.96-15.66.96v-32.43c4.06 0 7.74.01 10.87.01 3.91 0 8.14 2.04 10.92 4.8m58.91 2.65c-7.38 8.44-7.7 10.53-8.9 12.57 4.87-1.12 6.17-.94 14.63-5.72-1.45-2.48-3.5-4.94-5.73-6.85m58.25 10.68h-21.85c1.64-3.73 6.57-6.36 10.85-6.36 4.29 0 8.64 2.06 11 6.36m-50.91-18.98v14.32l9.81-5.1c.39-.22.85-.08 1.06.28.21.37.09.81-.29 1.02l-10.57 5.72v2.09l-.81-1.69c-8.1 4.22-8.74 4.84-13 8.63 0 0 4.44 1.13 10.4.48 1.54-.17 25.51-3.12 25.51-3.12.44-.05.83.26.89.69.02.45-.29.85-.72.89 0 0-23 2.98-25.38 3.32-2.34.33-7.21 1.33-10.03 2.63 2.71 1.63 5.79 3.25 8.96 4.04 3.89 1.01 7.98 1.96 12.1 3 .41.13.67.58.56.96-.13.36-.54.62-.96.5-4.33-.8-8.22-1.86-12.13-2.73-3.19-.67-6.17-1-9.73-.86 1.49 1.87 3.12 3.93 5.46 5.75 1.65 1.27 2.61 1.89 4.69 3.41.37.25.46.77.22 1.13-.29.37-.79.47-1.2.22-.79-.44-3.48-2.28-4.65-3.01-3.28-1.89-4.74-2.46-7.38-3.45.79 2.32 1.64 5.26 3.05 7.64 1.48 2.09 2.69 4.03 4.17 6.18 4.41-3.16 7.72-7.11 9.89-11.84v7.93h6.98c1.77 0 5.04.12 7.27-2.15 1.34-1.31 1.9-3.72 1.9-6.21v-4.74c.71 1.8 1.8 3.62 3.69 5.78 6.99 8.17 18.29 11.36 28.67 7.89 6.55-2.22 12.25-6.7 15.57-13.91h-16.33l-1.99 1.01c-4.23 1.87-10.07 1.53-13.63-1.51-1.84-1.52-3.5-3.52-3.87-5.71h37.73c.82-5.01.13-10.06-1.86-14.54-3.56-8.11-11.36-13.88-20.47-15.19-10.89-1.56-22.4 4.13-27.53 14.73v-30.98c-2.43.01-6.44 0-7.67 0-2.09 0-3.86.42-5.3 1.34-2.37 1.32-3.07 3.61-3.07 6.52v6.13c2.69-3.03 3.63-4.11 3.63-4.11.28-.32.82-.33 1.15-.06.34.29.37.75.08 1.05-.01.02-1.64 1.96-4.87 5.63m-62.39-7.22 14.82 14.86c5.05 5.16 8.19 7.82 12.86 10.72-.68-4.9-1.17-7.78-4.51-14.87-2.62 1.15-5.29 2.97-7.42 4.87-.61-1.43-1.24-3.16-1.94-4.68-5-10.47-16.22-18.26-28.2-18.51h-27.42v63.77h25.64c9.1.07 17.34-3.29 23.55-9.69l-13.28 4.28c-.41.16-.88-.07-1.04-.51-.15-.43.04-.91.46-1.06l17.88-5.71c2.98-1.02 7.54-2.96 10.4-4.95-6.03-2.32-11.6-2.17-19.98-2.83-.46 0-.81-.38-.81-.85 0-.46.37-.81.83-.81 8.33.46 13.69 1.01 20.13-.42-5.03-4.49-9.3-6.08-19.35-10.57-.41-.18-.61-.66-.43-1.08s.66-.62 1.08-.44c8.15 3.35 12.8 6.17 20.79 7.53-.96-1.66-2.49-4.83-5.48-8.03l-19.8-19.96c-.32-.31-.3-.82.05-1.12.32-.28.85-.27 1.17.06m41.02 49.16c-.23 5.07-.63 5.65 1.66 15.35 3.06-.8 5.85-1.88 8.33-3.41-4.55-6.96-7.4-9.52-9.99-11.94" fill="#ce0e2d"/><g fill="#001689"><path d="m215.68 96.74h-.71v-3.13h1.23c.85 0 1.34.24 1.34.91 0 .55-.35.77-.79.81l.83 1.41h-.83l-.73-1.36h-.34zm.62-1.91c.32 0 .49-.07.49-.35 0-.3-.34-.32-.61-.32h-.5v.67zm-.11 2.94c1.47 0 2.66-1.18 2.66-2.67 0-1.36-1.19-2.55-2.66-2.55-1.51 0-2.68 1.19-2.68 2.55 0 1.49 1.17 2.67 2.68 2.67zm-3.32-2.67c0-1.69 1.53-3.16 3.32-3.16 1.82 0 3.29 1.46 3.29 3.16 0 1.82-1.46 3.29-3.29 3.29-1.79 0-3.32-1.47-3.32-3.29z"/><path d="m109.91 102.03c-1.55 2.79-2.52 4.11-4.69 8.32-.25.37-.11.84.3 1.08.4.23.88.1 1.11-.27 2.09-3.67 3.15-5.56 5.15-8.91 2.65 1.28 5.25 2.23 8.55 2.82-.18 1.32-.4 2.64-.56 4.04-.07.44.3.83.72.92.44.1.86-.21.94-.65.21-1.38.41-2.7.6-4.05 3.32.38 6.13.23 9.09-.29.85 3.15 1.03 4.37 1.96 7.98h-85.03v-10.98h61.86m24.82 10.97h81.46v-10.98h-72.49c.68.95 1.33 1.79 1.95 2.69.22.36.08.9-.29 1.12-.34.2-.86.17-1.06-.18-.89-1.21-1.81-2.47-2.6-3.63h-1.92c-2 1.09-4.44 1.94-6.97 2.62.79 3.92.98 4.4 1.92 8.36"/></g></svg>